<svg xmlns="http://www.w3.org/2000/svg" width="24" height="24" viewBox="0 0 24 24" aria-hidden="true" focusable="false">
  <path fill="currentColor" d="M16.2 12.5c0-2 1.6-3 1.7-3.1-0.9-1.3-2.3-1.5-2.8-1.5-1.2-0.1-2.3 0.7-2.9 0.7-0.6 0-1.5-0.7-2.5-0.7-1.3 0-2.6 0.7-3.3 1.9-1.4 2.4-0.4 6 1 8 0.7 1 1.6 2.2 2.7 2.1 1.1 0 1.5-0.7 2.8-0.7s1.7 0.7 2.8 0.7c1.1 0 1.8-1.1 2.5-2.2 0.8-1.2 1.1-2.3 1.1-2.4-0.1-0.1-2.1-0.8-2.1-3.1zM14.1 5.9c0.5-0.6 0.8-1.4 0.7-2.2-0.7 0-1.5 0.4-2 1-0.4 0.5-0.8 1.3-0.7 2.1 0.8 0.1 1.6-0.3 2-0.9z"/>
</svg>
