<svg xmlns="http://www.w3.org/2000/svg" width="1200" height="630" viewBox="0 0 1200 630">
  <defs>
    <linearGradient id="bg" x1="0" y1="0" x2="1" y2="1">
      <stop offset="0%" stop-color="#0b0d12"/>
      <stop offset="100%" stop-color="#111521"/>
    </linearGradient>
    <linearGradient id="brandGrad" x1="0" y1="0" x2="1" y2="1">
      <stop offset="0%" stop-color="#15b8a6"/>
      <stop offset="100%" stop-color="#2563eb"/>
    </linearGradient>
  </defs>
  <rect width="1200" height="630" fill="url(#bg)"/>
  <g transform="translate(120,120)">
    <rect width="96" height="96" rx="20" fill="url(#brandGrad)"/>
    <path d="M68 52H52a8 8 0 1 1 0-16h38c-2-26-24-46-50-46C18  -10-4 12-4 40s22 50 50 50c21 0 39-12 47-29" fill="none" stroke="#fff" stroke-width="12" stroke-linecap="round" stroke-linejoin="round" transform="translate(-4,6)"/>
  </g>
  <text x="120" y="300" fill="#e6eaf2" font-family="Inter, Arial, sans-serif" font-size="80" font-weight="800">GastroPod</text>
  <text x="120" y="370" fill="#a9b0bf" font-family="Inter, Arial, sans-serif" font-size="36">Régulation intelligente des MICI</text>
  <rect x="120" y="410" width="460" height="6" rx="3" fill="#1b2131"/>
  <rect x="120" y="410" width="260" height="6" rx="3" fill="#5ea0ff"/>
</svg>
